<svg xmlns="http://www.w3.org/2000/svg" viewBox="0 0 368 368"><path d="M368 88c0-1-.2-2-.6-3l-.6-1c-.3-.4-.5-1-.9-1.3l-72-80a8 8 0 00-6-2.7H152a24 24 0 00-24 24v40H24A24 24 0 000 88v256a24 24 0 0024 24h192a24 24 0 0024-24v-40h104a24 24 0 0024-24V88zM224 344a8 8 0 01-8 8H24a8 8 0 01-8-8V88a8 8 0 018-8h104v88a8 8 0 008 8h88v168zm0-184h-80V80h4.7l75.3 75.3v4.7zm128 120a8 8 0 01-8 8H240V168.4 152a8 8 0 00-2.2-5.5l-.1-.1-80-80A8 8 0 00152 64h-8V24a8 8 0 018-8h112v88a8 8 0 008 8h80v168zm0-184h-72V16h4.4L352 91v5z"/></svg>